<?xml version="1.0" standalone="no"?>
<!DOCTYPE svg PUBLIC "-//W3C//DTD SVG 20010904//EN"
 "http://www.w3.org/TR/2001/REC-SVG-20010904/DTD/svg10.dtd">
<svg version="1.0" xmlns="http://www.w3.org/2000/svg"
 width="260.000000pt" height="260.000000pt" viewBox="0 0 260.000000 260.000000"
 preserveAspectRatio="xMidYMid meet">
<metadata>
Created by potrace 1.14, written by Peter Selinger 2001-2017
</metadata>
<g transform="translate(0.000000,260.000000) scale(0.100000,-0.100000)"
fill="#000000" stroke="none">
<path d="M1740 2319 c0 -5 -16 -9 -35 -9 -19 0 -35 -4 -35 -10 0 -5 -9 -10
-20 -10 -11 0 -20 -7 -20 -15 0 -8 -5 -15 -10 -15 -6 0 -20 -9 -32 -20 -12
-11 -30 -20 -40 -20 -11 0 -15 -5 -12 -15 4 -10 0 -15 -11 -15 -9 0 -13 -5
-10 -10 4 -6 3 -10 -2 -9 -19 3 -46 -2 -40 -8 4 -3 -1 -12 -11 -20 -9 -8 -11
-11 -4 -8 11 6 11 3 0 -14 -7 -12 -17 -21 -21 -21 -14 0 -37 -28 -37 -44 0 -9
-4 -16 -10 -16 -5 0 -10 -6 -10 -14 0 -8 -7 -16 -15 -20 -8 -3 -15 -12 -15
-21 0 -8 -4 -15 -10 -15 -5 0 -10 -11 -10 -25 0 -14 -4 -25 -10 -25 -5 0 -10
-11 -10 -25 0 -14 -4 -25 -10 -25 -5 0 -10 -9 -10 -20 0 -11 -4 -20 -10 -20
-5 0 -10 -9 -10 -20 0 -11 -4 -20 -10 -20 -5 0 -10 -12 -10 -26 0 -19 -4 -25
-15 -20 -11 4 -15 -1 -15 -19 0 -14 -4 -25 -10 -25 -8 0 -17 130 -11 163 1 5
-2 6 -7 3 -5 -3 -9 9 -10 27 0 17 -8 37 -16 43 -9 6 -16 21 -16 33 0 11 -4 21
-10 21 -5 0 -10 7 -10 16 0 8 -4 12 -10 9 -5 -3 -10 -2 -10 4 0 5 6 12 13 14
10 4 10 6 0 6 -7 1 -13 8 -13 17 0 8 -5 12 -11 9 -6 -4 -13 2 -16 14 -3 12 -9
21 -14 21 -5 0 -9 7 -9 16 0 9 -5 12 -12 8 -8 -5 -7 0 2 11 9 11 10 16 3 11
-8 -4 -13 -2 -13 6 0 8 -9 20 -20 28 -11 8 -20 21 -20 28 0 8 -6 12 -15 8 -8
-3 -21 1 -29 9 -8 8 -24 15 -35 15 -12 0 -21 5 -21 11 0 6 -28 9 -75 8 -41 -1
-75 -6 -75 -10 0 -5 -9 -9 -21 -9 -11 0 -27 -7 -36 -15 -8 -8 -19 -13 -24 -10
-5 4 -9 -1 -9 -9 0 -9 -5 -16 -11 -16 -14 0 -38 -30 -39 -48 0 -7 -7 -20 -15
-29 -8 -8 -12 -20 -8 -26 4 -6 0 -8 -10 -4 -13 5 -17 1 -17 -18 0 -13 -4 -27
-10 -30 -6 -3 -10 -17 -10 -31 0 -17 -4 -23 -12 -18 -6 4 -8 3 -5 -3 3 -5 -1
-22 -9 -37 -7 -16 -14 -39 -14 -52 0 -12 -4 -25 -8 -28 -5 -3 -10 -31 -11 -63
-4 -84 -6 -102 -16 -110 -4 -5 -5 -3 -1 4 3 6 3 14 -2 17 -4 2 -8 -6 -8 -20 0
-14 5 -23 11 -21 6 3 11 -34 12 -107 2 -65 7 -112 13 -114 5 -2 10 -22 10 -43
0 -30 3 -38 12 -33 9 5 9 2 -1 -9 -9 -11 -10 -17 -2 -17 6 0 11 -9 11 -20 0
-11 4 -20 10 -20 5 0 9 -3 9 -7 -3 -21 2 -44 9 -39 4 2 9 -7 10 -22 1 -15 9
-32 17 -38 8 -6 15 -21 15 -33 0 -11 5 -21 10 -21 6 0 10 -9 10 -20 0 -11 5
-20 10 -20 6 0 10 -11 10 -25 0 -14 5 -25 11 -25 15 0 39 -26 32 -34 -4 -3 -1
-6 6 -6 7 0 9 -4 6 -10 -3 -5 -1 -10 4 -10 6 0 11 -7 11 -15 0 -8 7 -15 15
-15 14 0 19 -12 16 -33 0 -4 5 -6 11 -5 7 2 12 -3 10 -10 -1 -8 11 -26 28 -42
17 -16 30 -38 30 -52 0 -18 2 -20 10 -8 6 10 10 11 10 3 0 -7 7 -13 15 -13 8
0 15 -7 15 -15 0 -18 43 -65 60 -65 5 0 10 -5 10 -11 0 -14 26 -39 40 -39 6 0
8 -5 4 -12 -5 -8 0 -7 11 2 11 9 16 10 11 3 -7 -12 12 -19 38 -14 5 1 3 -6 -5
-15 -8 -10 -9 -15 -2 -11 7 4 23 -4 37 -18 14 -14 30 -25 36 -25 5 0 10 -7 10
-16 0 -8 5 -12 10 -9 6 3 10 -1 10 -9 0 -9 7 -16 16 -16 9 0 12 -5 8 -13 -5
-7 -1 -7 12 3 10 8 16 10 12 6 -11 -13 11 -36 34 -36 10 0 16 -4 13 -10 -3 -5
3 -10 14 -10 10 0 27 -3 36 -6 13 -5 14 -8 3 -15 -9 -6 -7 -9 10 -9 15 0 22
-6 22 -20 0 -11 5 -20 10 -20 6 0 10 -5 10 -11 0 -21 29 -39 65 -39 21 0 34 4
30 10 -3 6 1 7 9 4 11 -4 16 0 16 15 0 12 5 21 10 21 6 0 10 9 10 20 0 11 5
20 10 20 6 0 10 6 10 14 0 9 12 16 32 18 17 2 33 9 34 16 1 7 0 8 -3 2 -3 -8
-9 -7 -19 1 -11 9 -11 13 1 26 9 8 13 19 10 24 -4 5 -2 9 3 9 12 0 23 32 29
80 2 19 8 36 13 38 6 2 10 15 10 28 0 15 6 24 15 24 8 0 15 9 15 20 0 11 6 20
13 20 9 0 9 2 0 8 -9 6 -7 12 7 22 11 8 20 23 20 33 0 9 7 20 15 23 8 4 15 15
15 25 0 10 5 19 10 19 6 0 10 11 10 25 0 14 5 25 10 25 6 0 10 11 10 25 0 14
4 25 10 25 5 0 7 -8 4 -17 -5 -15 -4 -16 5 -3 6 8 11 23 11 33 0 10 5 15 10
12 6 -3 10 1 10 9 0 9 5 16 10 16 6 0 10 7 10 15 0 8 5 15 10 15 6 0 10 7 10
15 0 8 5 15 10 15 6 0 10 9 10 21 0 11 5 17 10 14 9 -6 15 51 11 95 -2 13 -1
13 8 0 7 -9 11 -10 11 -3 0 6 6 18 13 25 6 7 18 25 26 41 8 15 19 26 25 24 13
-4 36 37 36 64 0 10 5 21 10 24 6 3 10 19 10 35 0 16 5 32 12 36 7 4 8 3 4 -4
-4 -7 -2 -12 3 -12 6 0 11 15 11 34 0 19 3 36 8 38 13 6 43 68 37 78 -3 6 -1
10 4 10 6 0 11 16 11 35 0 19 5 35 10 35 6 0 10 24 10 54 0 30 4 58 10 61 6 4
7 -1 4 -12 -5 -15 -4 -16 5 -3 15 21 14 30 -4 30 -8 0 -15 9 -15 20 0 11 -4
20 -10 20 -5 0 -10 11 -10 25 0 14 -4 25 -10 25 -5 0 -9 11 -8 24 1 14 6 22
10 20 11 -7 10 22 -2 46 -5 11 -14 29 -20 40 -5 11 -10 27 -10 35 0 8 -4 15
-10 15 -5 0 -10 16 -10 35 0 19 -5 35 -11 35 -18 0 -39 27 -39 50 0 12 -4 18
-10 15 -5 -3 -10 1 -10 9 0 9 -7 16 -15 16 -8 0 -15 5 -15 10 0 6 -11 22 -24
34 -20 21 -33 24 -100 24 -42 0 -76 -4 -76 -9z"/>
<path d="M456 1755 c-9 -26 -7 -32 5 -12 6 10 9 21 6 23 -2 3 -7 -2 -11 -11z"/>
<path d="M454 1626 c2 -48 11 -52 11 -5 1 21 -2 39 -6 39 -4 0 -6 -15 -5 -34z"/>
<path d="M1891 1204 c0 -11 3 -14 6 -6 3 7 2 16 -1 19 -3 4 -6 -2 -5 -13z"/>
</g>
</svg>
